<svg xmlns:dc="http://purl.org/dc/elements/1.1/" xmlns:cc="http://creativecommons.org/ns#" xmlns:rdf="http://www.w3.org/1999/02/22-rdf-syntax-ns#" xmlns:svg="http://www.w3.org/2000/svg" xmlns="http://www.w3.org/2000/svg" xmlns:sodipodi="http://sodipodi.sourceforge.net/DTD/sodipodi-0.dtd" xmlns:inkscape="http://www.inkscape.org/namespaces/inkscape" enable-background="new 0 0 128 128" version="1.1" viewBox="0 0 128 128" xml:space="preserve" x="0px" y="0px"><path style="" d="M 33.5 9 C 26.3 9 20.5 14.8 20.5 22 L 20.5 102 C 20.5 109.2 26.3 115 33.5 115 L 94.5 115 C 101.7 115 107.5 109.2 107.5 102 L 107.5 22 C 107.5 14.8 101.7 9 94.5 9 L 33.5 9 z M 33.5 15 L 94.5 15 C 98.4 15 101.5 18.1 101.5 22 L 101.5 102 C 101.5 105.9 98.4 109 94.5 109 L 33.5 109 C 29.6 109 26.5 105.9 26.5 102 L 26.5 22 C 26.5 18.1 29.6 15 33.5 15 z M 33.5 22 L 33.5 37 L 94.5 37 L 94.5 22 L 33.5 22 z M 84 57 C 81.2 57 79 59.2 79 62 C 79 63.4 79.6 64.6 80.5 65.5 L 72.599609 77.400391 C 71.999609 77.100391 71.299219 77 70.699219 77 C 69.699219 77 68.700391 77.300781 67.900391 77.800781 L 61.5 71.400391 C 62 70.600391 62.300781 69.699609 62.300781 68.599609 C 62.300781 65.799609 60.100781 63.599609 57.300781 63.599609 C 54.500781 63.599609 52.300781 65.799609 52.300781 68.599609 C 52.300781 69.599609 52.599609 70.600391 53.099609 71.400391 L 46.699219 77.800781 C 45.999219 77.300781 45 77 44 77 C 41.2 77 39 79.2 39 82 C 39 84.8 41.2 87 44 87 C 46.8 87 49 84.8 49 82 C 49 81 48.699219 79.999219 48.199219 79.199219 L 54.599609 72.800781 C 55.399609 73.300781 56.300391 73.599609 57.400391 73.599609 C 58.500391 73.599609 59.399219 73.300781 60.199219 72.800781 L 66.599609 79.199219 C 65.999609 79.999219 65.699219 81 65.699219 82 C 65.699219 84.8 67.899219 87 70.699219 87 C 73.499219 87 75.699219 84.8 75.699219 82 C 75.699219 80.6 75.099219 79.4 74.199219 78.5 L 82.099609 66.599609 C 82.699609 66.799609 83.3 67 84 67 C 86.8 67 89 64.8 89 62 C 89 59.2 86.8 57 84 57 z " fill="#ffffff" stroke="none"></path></svg>
