<?xml version="1.0" encoding="utf-8"?>
<!-- Generator: Adobe Illustrator 21.1.0, SVG Export Plug-In . SVG Version: 6.00 Build 0)  -->
<svg version="1.1" id="Layer_1" xmlns="http://www.w3.org/2000/svg" xmlns:xlink="http://www.w3.org/1999/xlink" x="0px" y="0px"
	 viewBox="0 0 48 48" style="enable-background:new 0 0 48 48;" xml:space="preserve">
<style type="text/css">
	.st0{fill:#003B5E;}
</style>
<path class="st0" d="M32.3,26.5l-3.7,3.7l-1.4-1.4c-0.3-0.3-0.8-0.3-1.2,0c-0.3,0.3-0.3,0.8,0,1.2l2,2c0.2,0.2,0.4,0.2,0.6,0.2
	c0.2,0,0.4-0.1,0.6-0.2l4.3-4.3c0.3-0.3,0.3-0.8,0-1.2C33.1,26.2,32.6,26.2,32.3,26.5z"/>
<path class="st0" d="M37,13H11c-0.5,0-0.8,0.4-0.8,0.8c0,0.5,0.4,0.8,0.8,0.8H37c0.5,0,0.8-0.4,0.8-0.8C37.8,13.3,37.4,13,37,13z"/>
<path class="st0" d="M37,17.4H11c-0.5,0-0.8,0.4-0.8,0.8c0,0.4,0.4,0.8,0.8,0.8H37c0.5,0,0.8-0.4,0.8-0.8
	C37.8,17.8,37.4,17.4,37,17.4z"/>
<path class="st0" d="M19.9,21.9H11c-0.5,0-0.8,0.4-0.8,0.8c0,0.5,0.4,0.8,0.8,0.8h8.8c0.5,0,0.8-0.4,0.8-0.8
	C20.7,22.3,20.3,21.9,19.9,21.9z"/>
<path class="st0" d="M41.9,7.7H6.1c-1.3,0-2.4,1.1-2.4,2.4v21.3c0,1.3,1.1,2.4,2.4,2.4H23c0.4,0.5,0.8,1,1.2,1.4l-2.5,8.4
	c-0.1,0.3,0,0.7,0.3,0.9c0.3,0.2,0.7,0.2,0.9,0l2.1-1.5l0.8,2.4c0.1,0.3,0.4,0.6,0.8,0.6c0,0,0,0,0,0c0.4,0,0.7-0.2,0.8-0.6l2.2-7.5
	l2.2,7.5c0.1,0.3,0.4,0.6,0.8,0.6c0,0,0,0,0,0c0.3,0,0.7-0.2,0.8-0.6l0.8-2.4l2.1,1.5c0.1,0.1,0.3,0.2,0.5,0.2c0,0,0,0,0,0
	c0.4,0,0.8-0.4,0.8-0.8c0-0.1,0-0.3-0.1-0.4l-2.5-8.3c0.5-0.4,0.9-0.9,1.2-1.4h5.5c1.3,0,2.4-1.1,2.4-2.4V10.1
	C44.3,8.8,43.2,7.7,41.9,7.7z M33.7,34.4c-0.5,0.4-1.1,0.7-1.7,0.9c0,0,0,0,0,0c-0.6,0.2-1.2,0.4-1.9,0.4c0,0,0,0,0,0
	c-0.1,0-0.2,0-0.4,0c-0.1,0-0.2,0-0.4,0c0,0,0,0,0,0c-0.7,0-1.3-0.2-1.9-0.4c0,0,0,0,0,0c-0.6-0.2-1.1-0.5-1.7-0.9
	c-1.5-1.2-2.5-3.1-2.5-5.2c0-3.6,2.9-6.5,6.5-6.5s6.5,2.9,6.5,6.5C36.2,31.3,35.2,33.2,33.7,34.4z M26.6,42.6l-0.4-1
	c-0.1-0.2-0.3-0.4-0.5-0.5c-0.1,0-0.2,0-0.2,0c-0.2,0-0.3,0.1-0.5,0.2l-1,0.7l1.7-5.6c0,0,0,0,0,0c0.1,0.1,0.3,0.1,0.4,0.2
	c0.1,0,0.1,0.1,0.2,0.1c0.2,0.1,0.3,0.1,0.5,0.2c0.1,0,0.1,0,0.2,0.1c0.2,0.1,0.3,0.1,0.5,0.2c0,0,0.1,0,0.1,0
	c0.2,0.1,0.4,0.1,0.6,0.1L26.6,42.6z M33.7,36.3l1.7,5.6l-1-0.7c-0.2-0.1-0.5-0.2-0.7-0.1c-0.2,0.1-0.4,0.3-0.5,0.5l-0.4,1l-1.6-5.4
	c0.2,0,0.4-0.1,0.6-0.1c0,0,0.1,0,0.1,0c0.2,0,0.4-0.1,0.5-0.2c0.1,0,0.1,0,0.2-0.1c0.2-0.1,0.3-0.1,0.5-0.2c0.1,0,0.1-0.1,0.2-0.1
	C33.4,36.4,33.5,36.4,33.7,36.3C33.7,36.3,33.7,36.3,33.7,36.3z M42.7,31.4c0,0.4-0.4,0.8-0.8,0.8h-4.6c0.4-0.9,0.6-2,0.6-3
	c0-4.5-3.7-8.1-8.1-8.1s-8.1,3.7-8.1,8.1c0,1.1,0.2,2.1,0.6,3h-16c-0.4,0-0.8-0.4-0.8-0.8V10.1c0-0.4,0.4-0.8,0.8-0.8h35.7
	c0.4,0,0.8,0.4,0.8,0.8C42.7,10.1,42.7,31.4,42.7,31.4z"/>
</svg>
