<svg xmlns="http://www.w3.org/2000/svg" xmlns:xlink="http://www.w3.org/1999/xlink" version="1.1" x="0px" y="0px" viewBox="0 0 74.167 74.355" style="enable-background:new 0 0 74.167 74.355;" xml:space="preserve"><g><path d="M69.917,0H4.25C1.906,0,0,1.907,0,4.25v41.927v7.674c0,2.344,1.906,4.25,4.25,4.25h22.917v13.754h-7.75v2.5h9h18   c0.69,0,1.25-0.56,1.25-1.25V58.101h22.25c2.344,0,4.25-1.906,4.25-4.25v-7.674V4.25C74.167,1.907,72.261,0,69.917,0z M2.5,4.25   c0-0.965,0.785-1.75,1.75-1.75h65.667c0.965,0,1.75,0.785,1.75,1.75v40.677H2.5V4.25z M45.167,71.855h-15.5V58.101h15.5V71.855z    M71.667,53.851c0,0.965-0.785,1.75-1.75,1.75h-23.5h-18H4.25c-0.965,0-1.75-0.785-1.75-1.75v-6.424h69.167V53.851z"></path><path d="M15.086,9.932c-2.285,0-4.433,0.89-6.049,2.506c-1.615,1.615-2.505,3.763-2.505,6.049c0,4.716,3.837,8.554,8.554,8.554   s8.555-3.837,8.555-8.554C23.641,13.769,19.803,9.932,15.086,9.932z M14.086,12.007v4.065l-2.874-2.875   C12.061,12.572,13.043,12.166,14.086,12.007z M8.532,18.486c0-1.413,0.443-2.758,1.265-3.874l4.288,4.288v6.063   C10.945,24.481,8.532,21.76,8.532,18.486z M16.086,24.964v-6.478v-6.478c3.142,0.483,5.555,3.204,5.555,6.478   C21.641,21.76,19.227,24.481,16.086,24.964z"></path><path d="M37.381,9.497c-4.717,0-8.555,3.837-8.555,8.554c0,4.717,3.838,8.555,8.555,8.555s8.554-3.837,8.554-8.555   C45.935,13.335,42.098,9.497,37.381,9.497z M30.826,18.051c0-3.274,2.413-5.995,5.555-6.478v6.478v6.478   C33.239,24.046,30.826,21.325,30.826,18.051z M38.381,24.529v-5.478h5.478C43.426,21.866,41.195,24.097,38.381,24.529z    M38.381,17.051v-5.478c2.814,0.433,5.045,2.663,5.478,5.478H38.381z"></path><path d="M59.082,9.932c-4.717,0-8.555,3.837-8.555,8.555c0,2.371,0.955,4.578,2.688,6.215c1.597,1.508,3.68,2.338,5.866,2.338   c4.717,0,8.554-3.837,8.554-8.554C67.636,13.769,63.799,9.932,59.082,9.932z M58.082,21.77v3.194   c-0.931-0.144-1.815-0.487-2.602-1.008L58.082,21.77z M58.082,12.008v7.149l-4.097,3.442c-0.945-1.163-1.458-2.594-1.458-4.112   C52.527,15.212,54.94,12.491,58.082,12.008z M60.082,24.964v-5.341v-7.615c3.141,0.483,5.554,3.204,5.554,6.478   C65.636,21.76,63.223,24.481,60.082,24.964z"></path><rect x="9.744" y="31.177" width="11.34" height="2.5"></rect><rect x="9.744" y="36.927" width="11.34" height="2.5"></rect><rect x="31.711" y="31.177" width="11.34" height="2.5"></rect><rect x="31.711" y="36.927" width="11.34" height="2.5"></rect><rect x="53.412" y="31.177" width="11.34" height="2.5"></rect><rect x="53.412" y="36.927" width="11.34" height="2.5"></rect></g></svg>