<?xml version="1.0" encoding="utf-8"?>
<!-- Generator: Adobe Illustrator 21.1.0, SVG Export Plug-In . SVG Version: 6.00 Build 0)  -->
<svg version="1.1" id="Layer_1" xmlns="http://www.w3.org/2000/svg" xmlns:xlink="http://www.w3.org/1999/xlink" x="0px" y="0px"
	 viewBox="0 0 100 100" style="enable-background:new 0 0 100 100;" xml:space="preserve">
<style type="text/css">
	.st0{fill:#003B5E;}
</style>
<path class="st0" d="M75.6,80H24.4c-1.1,0-2-0.9-2-2V22c0-1.1,0.9-2,2-2h51.3c1.1,0,2,0.9,2,2v56C77.6,79.1,76.7,80,75.6,80z
	 M26.4,76h47.3V24H26.4V76z M48.8,46H33.3c-1.1,0-2-0.9-2-2V32.2c0-1.1,0.9-2,2-2h15.6c1.1,0,2,0.9,2,2V44
	C50.8,45.2,49.9,46,48.8,46z M35.3,42h11.6v-7.9H35.3V42z M68.7,32.2c0-1.1-0.9-2-2-2h-8c-1.1,0-2,0.9-2,2c0,1.1,0.9,2,2,2h8
	C67.9,34.2,68.7,33.3,68.7,32.2z M68.7,43.7c0-1.1-0.9-2-2-2h-8c-1.1,0-2,0.9-2,2s0.9,2,2,2h8C67.9,45.7,68.7,44.8,68.7,43.7z
	 M68.7,55.2c0-1.1-0.9-2-2-2H33.3c-1.1,0-2,0.9-2,2s0.9,2,2,2h33.5C67.9,57.2,68.7,56.3,68.7,55.2z M68.7,67.8c0-1.1-0.9-2-2-2H33.3
	c-1.1,0-2,0.9-2,2s0.9,2,2,2h33.5C67.9,69.8,68.7,69,68.7,67.8z"/>
</svg>
