<?xml version="1.0" encoding="utf-8"?>
<!-- Generator: Adobe Illustrator 21.1.0, SVG Export Plug-In . SVG Version: 6.00 Build 0)  -->
<svg version="1.1" id="Layer_1" xmlns="http://www.w3.org/2000/svg" xmlns:xlink="http://www.w3.org/1999/xlink" x="0px" y="0px"
	 viewBox="0 0 100.4 58.4" style="enable-background:new 0 0 100.4 58.4;" xml:space="preserve">
<style type="text/css">
	.st0{fill:#003B5E;}
</style>
<g>
	<path class="st0" d="M15.1,33.8c-0.5,0-0.9,0.4-0.9,0.9v7c0,0.5,0.4,0.9,0.9,0.9c0.5,0,0.9-0.4,0.9-0.9v-7
		C16,34.2,15.6,33.8,15.1,33.8z"/>
	<path class="st0" d="M30.5,33.8c-0.5,0-0.9,0.4-0.9,0.9v7c0,0.5,0.4,0.9,0.9,0.9s0.9-0.4,0.9-0.9v-7C31.4,34.2,31,33.8,30.5,33.8z"
		/>
	<path class="st0" d="M26.6,28.2c-0.3-0.4-0.9-0.4-1.2-0.1l-2.6,2.3l-2.6-2.3c-0.3-0.3-0.9-0.2-1.2,0.1c-0.3,0.3-0.2,0.9,0.1,1.2
		l1.6,1.4c-0.2,1.5-1.2,6.6-1.9,9.8c-0.1,0.2,0,0.6,0.2,0.7l3.2,3.7c0,0,0,0,0.1,0.1c0,0,0,0.1,0.1,0.1s0.1,0.1,0.2,0.1l0.1,0.1
		c0.1,0.1,0.2,0.1,0.3,0.1l0,0l0,0c0.1,0,0.2,0,0.3-0.1c0,0,0.1,0,0.1-0.1c0.1,0,0.1-0.1,0.2-0.1c0,0,0-0.1,0.1-0.1c0,0,0,0,0.1-0.1
		l3.2-3.7c0.2-0.2,0.2-0.5,0.2-0.7c-0.6-3.2-1.7-8.3-1.9-9.8l1.6-1.4C26.9,29.2,27,28.6,26.6,28.2z M25,40.5l-2.3,2.7l-2.3-2.7
		c0.9-4.4,1.4-6.9,1.6-8.4l0,0c0.1,0,0.1,0.1,0.2,0.1l0.1,0.1c0.1,0.1,0.2,0.1,0.3,0.1l0,0l0,0c0.1,0,0.2,0,0.3-0.1
		c0,0,0.1,0,0.1-0.1c0.1,0,0.1-0.1,0.2-0.1l0,0C23.6,33.7,24.1,36.2,25,40.5z"/>
	<path class="st0" d="M39.9,44.7c-0.5,0-0.9,0.4-0.9,0.9v8.7c0,0.5,0.4,0.9,0.9,0.9c0.5,0,0.9-0.4,0.9-0.9v-8.7
		C40.7,45.1,40.4,44.7,39.9,44.7z"/>
	<path class="st0" d="M59,44.7c-0.5,0-0.9,0.4-0.9,0.9v8.7c0,0.5,0.4,0.9,0.9,0.9c0.5,0,0.9-0.4,0.9-0.9v-8.7
		C59.9,45.1,59.5,44.7,59,44.7z"/>
	<path class="st0" d="M88.3,27.8c-0.9-1.2-2.1-2.1-3.6-2.7l-3.2-1.2c0.7-1.3,1.1-2.9,1.1-4.6c0-4.5-3-8.2-6.6-8.2s-6.6,3.6-6.6,8.2
		c0,1.7,0.4,3.2,1.1,4.6l-3.2,1.2c-1.4,0.6-2.7,1.5-3.6,2.7c-1.1,1.4-1.6,3.1-1.6,4.8v2.7c-0.6-0.5-1.5-0.9-2.2-1.2l-4-1.5
		c1-1.6,1.5-3.6,1.5-5.7c0-5.5-3.6-9.9-8-9.9s-8,4.4-8,9.9c0,2.2,0.6,4.1,1.5,5.7l-4.2,1.6c-0.8,0.3-1.5,0.7-2.2,1.2v-2.6
		c0-1.7-0.6-3.4-1.6-4.8c-0.9-1.2-2.1-2.1-3.6-2.7l-3.2-1.2c0.7-1.3,1.1-2.9,1.1-4.6c0-4.5-3-8.2-6.6-8.2s-6.6,3.6-6.6,8.2
		c0,1.7,0.4,3.2,1.1,4.6l-3.2,1.1c-1.4,0.6-2.7,1.5-3.6,2.7C9.6,29.3,9,31,9,32.7v7.6c0,0.5,0.4,0.9,0.9,0.9s0.9-0.4,0.9-0.9v-7.6
		c0-1.4,0.5-2.7,1.3-3.7c0.7-1,1.7-1.7,2.7-2.1l3.6-1.4c1.1,1.4,2.7,2.2,4.4,2.2s3.3-0.8,4.4-2.1l3.6,1.3c1.1,0.4,2.1,1.1,2.7,2.1
		c0.8,1.1,1.3,2.4,1.3,3.7v4.2c-0.1,0.2-0.2,0.2-0.3,0.4c-1.3,1.7-1.9,3.7-1.9,5.8v9.4c0,0.5,0.4,0.9,0.9,0.9s0.9-0.4,0.9-0.9v-9.4
		c0-1.7,0.6-3.4,1.6-4.8c0.9-1.2,2.1-2.1,3.6-2.7l4.5-1.7c1.5,1.6,3.3,2.7,5.5,2.7c2.1,0,4-1.1,5.5-2.7l4.5,1.7
		c1.4,0.6,2.6,1.5,3.6,2.7c1.1,1.4,1.6,3.1,1.6,4.8v9.4c0,0.5,0.4,0.9,0.9,0.9s0.9-0.4,0.9-0.9v-9.4c0-2.1-0.7-4.1-1.9-5.8
		c-0.1-0.2-0.2-0.2-0.3-0.4v-4.3c0-1.4,0.5-2.7,1.3-3.7c0.7-1,1.7-1.7,2.7-2.1l3.6-1.4c1.2,1.3,2.7,2.1,4.4,2.1s3.3-0.8,4.4-2.1
		l3.6,1.4c1.1,0.4,2.1,1.1,2.7,2.1c0.8,1.1,1.3,2.4,1.3,3.7v7.6c0,0.5,0.4,0.9,0.9,0.9c0.5,0,0.9-0.4,0.9-0.9v-7.6
		C89.9,30.9,89.3,29.2,88.3,27.8z M22.8,26c-2.7,0-4.9-2.9-4.9-6.5s2.2-6.5,4.9-6.5s4.9,2.9,4.9,6.5C27.7,23.1,25.5,26,22.8,26z
		 M49.4,34.9c-3.5,0-6.3-3.6-6.3-8.2s2.8-8.2,6.3-8.2c3.5,0,6.3,3.6,6.3,8.2S52.9,34.9,49.4,34.9z M76,25.8c-2.7,0-4.9-2.9-4.9-6.5
		s2.2-6.5,4.9-6.5c2.7,0,4.9,2.9,4.9,6.5C81,23,78.8,25.8,76,25.8z"/>
	<path class="st0" d="M83.8,33.7c-0.5,0-0.9,0.4-0.9,0.9v7c0,0.5,0.4,0.9,0.9,0.9s0.9-0.4,0.9-0.9v-7C84.7,34.1,84.3,33.7,83.8,33.7
		z"/>
	<path class="st0" d="M79.9,28.2c-0.3-0.4-0.9-0.4-1.2-0.1l-1.9,1.7l0,0l0,0l-0.6,0.6l-0.6-0.6l0,0l0,0l-1.9-1.7
		c-0.3-0.3-0.9-0.2-1.2,0.1c-0.3,0.3-0.2,0.9,0.1,1.2l1.6,1.4c-0.2,1.5-1.2,6.6-1.9,9.8c-0.1,0.2,0,0.6,0.2,0.7l3.2,3.7
		c0,0,0,0,0.1,0.1c0,0,0,0.1,0.1,0.1s0.1,0.1,0.2,0.1l0.1,0.1c0.1,0.1,0.2,0.1,0.3,0.1l0,0l0,0c0.1,0,0.2,0,0.3-0.1
		c0,0,0.1,0,0.1-0.1c0.1,0,0.1-0.1,0.2-0.1c0,0,0-0.1,0.1-0.1c0,0,0,0,0.1-0.1l3.2-3.7c0.2-0.2,0.2-0.5,0.2-0.7
		c-0.6-3.2-1.7-8.3-1.9-9.8l1.6-1.4C80.2,29,80.3,28.6,79.9,28.2z M78.3,40.4L76,43.1l-2.3-2.7c0.9-4.4,1.4-6.9,1.6-8.4l0,0
		c0.1,0,0.1,0.1,0.2,0.1l0.1,0.1c0.1,0.1,0.2,0.1,0.3,0.1l0,0l0,0c0.1,0,0.2,0,0.3-0.1c0,0,0.1,0,0.1-0.1c0.1,0,0.1-0.1,0.2-0.1l0,0
		C76.9,33.6,77.4,36.1,78.3,40.4z"/>
	<path class="st0" d="M68.4,33.7c-0.5,0-0.9,0.4-0.9,0.9v7c0,0.5,0.4,0.9,0.9,0.9c0.5,0,0.9-0.4,0.9-0.9v-7
		C69.3,34.1,68.9,33.7,68.4,33.7z"/>
	<path class="st0" d="M54.1,37.6c-0.3-0.3-0.9-0.4-1.2-0.1l-3.4,2.8l-3.3-2.7c-0.3-0.3-0.9-0.2-1.2,0.1c-0.3,0.4-0.3,1,0.1,1.3
		l2.1,1.8c-0.2,1.6-1.5,7.9-2.3,12c-0.1,0.2,0,0.6,0.2,0.7l3.9,4.5c0,0,0,0,0.1,0.1c0,0,0,0.1,0.1,0.1s0.1,0.1,0.2,0.1l0.1,0.1
		c0.1,0.1,0.2,0.1,0.3,0.1l0,0l0,0c0.1,0,0.2,0,0.3-0.1c0,0,0.1,0,0.1-0.1c0.1,0,0.1-0.1,0.2-0.1c0,0,0-0.1,0.1-0.1c0,0,0,0,0.1-0.1
		l3.9-4.5c0.2-0.2,0.2-0.5,0.2-0.7c-0.8-4.1-2.2-10.6-2.3-12.1l2.1-1.8C54.3,38.6,54.3,38,54.1,37.6z M52.4,52.6l-3,3.6l-3-3.5
		c1.2-5.8,1.9-8.9,2.1-10.6l0.3,0.2c0.2,0.2,0.4,0.2,0.6,0.2c0.2,0,0.5-0.1,0.6-0.3c0.1-0.1,0.1-0.1,0.1-0.2l0.1-0.2
		C50.6,43.6,51.2,46.8,52.4,52.6z"/>
</g>
</svg>
