<?xml version="1.0" encoding="utf-8"?>
<!-- Generator: Adobe Illustrator 21.1.0, SVG Export Plug-In . SVG Version: 6.00 Build 0)  -->
<svg version="1.1" id="Layer_1" xmlns="http://www.w3.org/2000/svg" xmlns:xlink="http://www.w3.org/1999/xlink" x="0px" y="0px"
	 viewBox="0 0 360 360" style="enable-background:new 0 0 360 360;" xml:space="preserve">
<style type="text/css">
	.st0{fill:#003B5E;}
</style>
<g>
	<path class="st0" d="M313.9,167.4c-5.3-4.8-12.4-7.6-19.4-7.6h-37.1c-12.8,0-20.2,8.2-23.3,15.7V116c0-7.4-2.9-14.7-8-20
		c-4.3-4.5-12.1-9.8-25.4-9.8h-20.2c-12.7,0-21.5,4.2-26.2,12.2c-6.7-8.3-18.2-12.2-29.2-12.2H64.9c-9.4,0-17.1,3.7-22.5,10.8
		c-4.3,5.7-6.7,13.4-6.7,21.2v90.4c0,3.7,0.4,8.3,3.4,11.4c3,3,7,3,10.5,3l9.1,0v127.8h9.9V213.2h-19c-1.2,0-2.9,0-3.5-0.2
		c-0.2-0.3-0.5-1.4-0.5-4.3v-90.4c0-8.2,4.1-22.1,19.3-22.1h60.2c2.6,0,25.1,0.6,25.1,19.6v64.9l-26.9,83H162v87.2h9.9v-97.1h-35
		l23.2-71.5v-66.5c0-13.9,5.9-19.6,20.4-19.6h20.2c11.3,0,23.6,6.2,23.6,19.9v67.1l23.7,71.2h-39v96.5h9.9v-86.6h42.9l-19.3-58
		v-23.4c0-2.9,3.6-13.2,15.1-13.2h37.1c7.4,0,19.9,5.1,19.9,24.3v61.4h-24.4v95.5h9.9v-85.6h24.4V194
		C324.4,179.8,318.7,171.7,313.9,167.4z"/>
	<path class="st0" d="M93.2,70.7c17,0,30.9-13.8,30.9-30.9S110.2,9,93.2,9c-17,0-30.9,13.8-30.9,30.9S76.2,70.7,93.2,70.7z
		 M93.2,18.9c11.6,0,21,9.4,21,21s-9.4,21-21,21c-11.6,0-21-9.4-21-21S81.7,18.9,93.2,18.9z"/>
	<path class="st0" d="M191.2,70.7c17,0,30.9-13.8,30.9-30.9S208.2,9,191.2,9c-17,0-30.9,13.8-30.9,30.9S174.2,70.7,191.2,70.7z
		 M191.2,18.9c11.6,0,21,9.4,21,21s-9.4,21-21,21c-11.6,0-21-9.4-21-21S179.6,18.9,191.2,18.9z"/>
	<path class="st0" d="M280.3,141.7c17,0,30.9-13.9,30.9-30.9c0-17-13.8-30.8-30.9-30.8c-17,0-30.9,13.8-30.9,30.8
		C249.5,127.9,263.3,141.7,280.3,141.7z M280.3,89.9c11.6,0,21,9.4,21,21c0,11.6-9.4,21-21,21c-11.6,0-21-9.4-21-21
		C259.4,99.3,268.8,89.9,280.3,89.9z"/>
</g>
</svg>
