<?xml version="1.0" encoding="utf-8"?>
<!-- Generator: Adobe Illustrator 21.1.0, SVG Export Plug-In . SVG Version: 6.00 Build 0)  -->
<svg version="1.1" id="Layer_1" xmlns="http://www.w3.org/2000/svg" xmlns:xlink="http://www.w3.org/1999/xlink" x="0px" y="0px"
	 viewBox="0 0 100 100" style="enable-background:new 0 0 100 100;" xml:space="preserve">
<style type="text/css">
	.st0{fill:#003B5E;}
</style>
<title>ALL</title>
<path class="st0" d="M89.9,87.8H13.3c-0.6,0-1-0.4-1-1V10c0-0.6,0.4-1,1-1s1,0.4,1,1v75.8h75.6c0.6,0,1,0.4,1,1S90.4,87.8,89.9,87.8
	z"/>
<path class="st0" d="M16.5,14.2c-0.3,0-0.5-0.1-0.7-0.3l-2.5-2.5l-2.5,2.5c-0.4,0.4-1.1,0.3-1.4-0.1c-0.3-0.4-0.3-0.9,0-1.3l3.2-3.2
	C12.8,9.1,13,9,13.3,9l0,0c0.3,0,0.5,0.1,0.7,0.3l3.2,3.2c0.4,0.4,0.4,1,0,1.4C17,14.1,16.7,14.2,16.5,14.2L16.5,14.2z"/>
<path class="st0" d="M86.7,91c-0.6,0-1-0.5-1-1c0-0.3,0.1-0.5,0.3-0.7l2.5-2.5L86,84.4c-0.3-0.5-0.2-1.1,0.3-1.4
	c0.3-0.2,0.8-0.2,1.1,0l3.2,3.2c0.4,0.4,0.4,1,0,1.4l-3.2,3.1C87.2,90.9,87,91,86.7,91z"/>
<path class="st0" d="M32.1,87.8c-0.6,0-1-0.4-1-1V25.6h-10v61.2c0,0.6-0.4,1-1,1s-1-0.4-1-1V24.6c0-0.6,0.4-1,1-1h12
	c0.6,0,1,0.4,1,1v62.2C33.1,87.4,32.6,87.8,32.1,87.8z"/>
<path class="st0" d="M44.3,87.8c-0.6,0-1-0.4-1-1v-47h-11c-0.6,0-1-0.4-1-1s0.4-1,1-1h12c0.6,0,1,0.4,1,1v48
	C45.3,87.4,44.8,87.8,44.3,87.8z"/>
<path class="st0" d="M67.9,87.8c-0.6,0-1-0.4-1-1V31.6h-10v55.2c0,0.6-0.4,1-1,1s-1-0.4-1-1V30.6c0-0.6,0.4-1,1-1h12
	c0.6,0,1,0.4,1,1v56.2C68.9,87.4,68.4,87.8,67.9,87.8z"/>
<path class="st0" d="M80,87.8c-0.6,0-1-0.4-1-1V44.4H68c-0.6,0-1-0.4-1-1s0.4-1,1-1h12c0.6,0,1,0.4,1,1v43.4
	C81,87.4,80.6,87.8,80,87.8z"/>
</svg>
