<?xml version="1.0" encoding="utf-8"?>
<!-- Generator: Adobe Illustrator 21.1.0, SVG Export Plug-In . SVG Version: 6.00 Build 0)  -->
<svg version="1.1" id="Layer_1" xmlns="http://www.w3.org/2000/svg" xmlns:xlink="http://www.w3.org/1999/xlink" x="0px" y="0px"
	 viewBox="0 0 100 100" style="enable-background:new 0 0 100 100;" xml:space="preserve">
<style type="text/css">
	.st0{fill:#222323;}
</style>
<path class="st0" d="M96.3,34.4l-9.4-12.9V6.2c0-3-2.4-5.4-5.4-5.4h-63c-3,0-5.4,2.4-5.4,5.4v15.3L3.7,34.4
	c-6.8,9.4-3.9,17.2,6.3,18.5v41c0,3,2.4,5.4,5.4,5.4h69.2c3,0,5.4-2.4,5.4-5.4v-41C100.2,51.5,103.1,43.8,96.3,34.4z M16.9,6.2
	c0-0.8,0.7-1.5,1.5-1.5h63.1c0.8,0,1.5,0.7,1.5,1.5v13H16.9V6.2z M37.7,23l-7.1,26.1h-13L32.5,23H37.7z M41.7,23h5.9v26.1h-13
	L41.7,23z M51.4,23h5.9l7.1,26.1h-13V23z M68.4,49.2L61.3,23h5.2l14.8,26.1H68.4V49.2z M4.3,45.8c-1.1-2.1-0.2-5.5,2.5-9.2L16.7,23
	H28L13.2,49.2l0,0C8.6,49.2,5.4,48,4.3,45.8z M61.4,95.4H39.9V63.1h21.5V95.4z M84.6,95.4H65.3V61.5c0-1.3-1-2.3-2.3-2.3H38.4
	c-1.3,0-2.3,1-2.3,2.3v33.8H15.4c-0.8,0-1.5-0.7-1.5-1.5V53h72.3v40.8C86.1,94.7,85.5,95.4,84.6,95.4z M95.7,45.8
	c-1.1,2.1-4.3,3.4-8.9,3.4h-1L71,23h12.3l9.9,13.6C95.9,40.3,96.8,43.7,95.7,45.8z"/>
</svg>
