<?xml version="1.0" encoding="utf-8"?>
<!-- Generator: Adobe Illustrator 21.1.0, SVG Export Plug-In . SVG Version: 6.00 Build 0)  -->
<svg version="1.1" id="Layer_1" xmlns="http://www.w3.org/2000/svg" xmlns:xlink="http://www.w3.org/1999/xlink" x="0px" y="0px"
	 viewBox="0 0 65 65" style="enable-background:new 0 0 65 65;" xml:space="preserve">
<style type="text/css">
	.st0{fill:#003B5E;}
</style>
<g>
	<path class="st0" d="M57.9,27.9L57.9,27.9c0-13.8-11-25-24.7-25.4V0.7c0-0.4-0.3-0.7-0.7-0.7s-0.7,0.3-0.7,0.7v1.7
		C18.1,2.9,7.1,14.1,7.1,27.9l0,0V28c0.1,0.3,0.4,0.6,0.7,0.6s0.6-0.2,0.7-0.5l0,0c0.2-0.6,1.9-1.5,4.4-1.5s4.2,0.8,4.4,1.5l0,0
		c0,0,0,0,0,0.1s0.1,0.1,0.1,0.2l0,0c0.1,0.1,0.3,0.2,0.5,0.2c0.1,0,0.2,0,0.2,0c0.3-0.1,0.4-0.3,0.5-0.6c1.1-2.3,6.5-4,13-4.2V31
		c0,0.4,0.3,0.7,0.7,0.7c0.4,0,0.7-0.3,0.7-0.7v-7.2c6.6,0.1,12.1,1.9,13.1,4.3l0,0c0,0,0,0.1,0.1,0.1l0.1,0.1l0,0l0,0l0,0
		c0,0,0.1,0.1,0.2,0.1c0,0,0,0,0.1,0s0.2,0.1,0.3,0.1s0.2,0,0.3-0.1l0,0c0.1,0,0.1-0.1,0.2-0.1c0,0,0.1,0,0.1-0.1l0.1-0.1l0.1-0.1
		c0,0,0,0,0-0.1c0.2-0.6,1.9-1.4,4.4-1.4s4.2,0.8,4.4,1.5c0.1,0.3,0.4,0.5,0.7,0.5c0.1,0,0.2,0,0.2,0c0.2-0.1,0.4-0.2,0.4-0.4
		c0,0,0,0,0-0.1C57.9,28,57.9,28,57.9,27.9z M12.9,25.2c-1.7,0-3.2,0.3-4.3,0.9c0.8-10.2,8-18.6,17.5-21.3
		c-4.9,3.8-8.4,11.9-8.8,21.3C16.2,25.5,14.7,25.2,12.9,25.2z M32.5,22.4L32.5,22.4L32.5,22.4L32.5,22.4c-6.1,0-11.2,1.3-13.7,3.3
		C19.4,13.5,25.3,4,32.5,4s13.1,9.6,13.7,21.7C43.7,23.6,38.6,22.4,32.5,22.4z M52.1,25.2c-1.8,0-3.3,0.4-4.4,1
		c-0.4-9.4-3.9-17.5-8.8-21.3C48.4,7.6,55.6,16,56.3,26.2C55.3,25.5,53.8,25.2,52.1,25.2z"/>
	<path class="st0" d="M33.6,53.2c0.3,0.2,0.4,0.5,0.4,0.8h1.5c0-0.7-0.3-1.4-0.9-1.9c-0.4-0.3-0.8-0.5-1.3-0.6V50h-1.5v1.4
		c-0.5,0.1-1,0.3-1.3,0.6c-0.6,0.5-0.9,1.2-0.9,1.9s0.3,1.4,0.9,1.9s1.3,0.8,2.1,0.8c0.4,0,0.8,0.1,1.1,0.4c0.3,0.2,0.4,0.5,0.4,0.8
		s-0.1,0.6-0.4,0.8c-0.6,0.5-1.7,0.5-2.2,0c-0.3-0.2-0.4-0.5-0.4-0.8h-1.5c0,0.7,0.3,1.4,0.9,1.9c0.4,0.3,0.8,0.5,1.3,0.7v1.4h1.5
		v-1.4c0.5-0.1,1-0.3,1.3-0.7c0.6-0.5,0.9-1.2,0.9-1.9s-0.3-1.4-0.9-1.9c-0.6-0.5-1.3-0.8-2.1-0.8c-0.4,0-0.8-0.1-1.1-0.4
		C31.1,54.6,31,54.3,31,54s0.1-0.6,0.4-0.8C32,52.7,33,52.7,33.6,53.2z"/>
	<path class="st0" d="M42.8,32.3c-5.5,0-9.7,1.9-9.7,4.5V47c-0.2,0-0.4,0-0.7,0c-0.6,0-1.1,0.1-1.6,0.2v-4.6c0-2.5-4-4.5-9.2-4.5
		s-9.2,1.9-9.2,4.5v18.1c0,2.5,4,4.5,9.2,4.5c2.4,0,4.7-0.4,6.4-1.2c1.3,0.8,2.8,1.2,4.5,1.2c1.5,0,2.9-0.4,4.1-1
		c1.7,0.6,3.9,1,6.2,1c5.5,0,9.7-1.9,9.7-4.5V36.8C52.5,34.2,48.4,32.3,42.8,32.3z M21.7,39.5c4.4,0,7.7,1.6,7.7,3s-3.3,3-7.7,3
		s-7.7-1.6-7.7-3C14,41.1,17.3,39.5,21.7,39.5z M14,45c1.6,1.2,4.4,2,7.7,2s6.1-0.8,7.7-2v2.5c-1.9,0.7-3.5,2-4.5,3.6
		c-1,0.2-2.1,0.3-3.2,0.3c-4.4,0-7.7-1.6-7.7-3C14,48.4,14,45,14,45z M14,50.9c1.6,1.2,4.4,2,7.7,2c0.8,0,1.6-0.1,2.4-0.2
		c-0.4,1-0.6,2.1-0.6,3.2c0,0.5,0,0.9,0.1,1.4c-0.6,0.1-1.2,0.1-1.9,0.1c-4.4,0-7.7-1.6-7.7-3C14,54.4,14,50.9,14,50.9z M21.7,63.5
		c-4.4,0-7.7-1.6-7.7-3V57c1.6,1.2,4.4,2,7.7,2c0.8,0,1.5-0.1,2.2-0.1c0.5,1.6,1.5,2.9,2.7,4C25.2,63.2,23.5,63.5,21.7,63.5z
		 M24.9,55.9c0-4.2,3.4-7.6,7.6-7.6s7.6,3.4,7.6,7.6s-3.4,7.6-7.6,7.6S24.9,60.1,24.9,55.9z M42.8,63.5c-1.7,0-3.3-0.2-4.6-0.6
		c1.2-1,2.1-2.2,2.7-3.6c0.6,0.1,1.3,0.1,2,0.1c3.5,0,6.5-0.8,8.2-2v3.1C51,61.9,47.5,63.5,42.8,63.5z M42.8,57.9
		c-0.5,0-1,0-1.5-0.1c0.1-0.6,0.2-1.3,0.2-1.9c0-0.9-0.1-1.8-0.4-2.7c0.6,0,1.1,0.1,1.7,0.1c3.5,0,6.5-0.8,8.2-2V55
		C51,56.4,47.5,57.9,42.8,57.9z M42.8,51.9c-0.8,0-1.6-0.1-2.3-0.1c-1.2-2.3-3.3-4-5.9-4.6v-1.9c1.7,1.2,4.7,2,8.2,2s6.5-0.8,8.2-2
		v3.6C51,50.3,47.5,51.9,42.8,51.9z M42.8,45.8c-4.7,0-8.2-1.6-8.2-3v-3.6c1.7,1.2,4.7,2,8.2,2s6.5-0.8,8.2-2v3.6
		C51,44.2,47.5,45.8,42.8,45.8z M42.8,39.7c-4.7,0-8.2-1.6-8.2-3s3.5-3,8.2-3s8.2,1.6,8.2,3C51,38.2,47.5,39.7,42.8,39.7z"/>
</g>
</svg>
