<?xml version="1.0" encoding="utf-8"?>
<!-- Generator: Adobe Illustrator 21.1.0, SVG Export Plug-In . SVG Version: 6.00 Build 0)  -->
<svg version="1.1" id="Layer_1" xmlns="http://www.w3.org/2000/svg" xmlns:xlink="http://www.w3.org/1999/xlink" x="0px" y="0px"
	 viewBox="0 0 64 64" style="enable-background:new 0 0 64 64;" xml:space="preserve">
<style type="text/css">
	.st0{fill:#003B5E;}
</style>
<g>
	<path class="st0" d="M33.7,12.4h-2.3l-5.9,4.3v-3.4h1.8V8H9.4v5.3h1.8V27L5,31.5v2.2h4.4V63h46.1V33.7H60v-2.2L33.7,12.4z
		 M11.2,9.8h14.2v1.8H11.2V9.8z M13,13.3h10.6V18L13,25.7V13.3z M11.2,61.2V33.7h42.6v27.5H11.2z M54.7,32h-0.9H11.2h-0.9H7.4
		l24.5-17.7h1.2L57.6,32H54.7z"/>
	<path class="st0" d="M25.4,24c0,3.9,3.2,7.1,7.1,7.1s7.1-3.2,7.1-7.1s-3.2-7.1-7.1-7.1S25.4,20.1,25.4,24z M37.8,24
		c0,2.9-2.4,5.3-5.3,5.3s-5.3-2.4-5.3-5.3s2.4-5.3,5.3-5.3S37.8,21,37.8,24z"/>
	<path class="st0" d="M29,43.5c0-2.5-2-4.4-4.4-4.4c-2.1,0-4,1.6-4.3,3.6c-2,0.4-3.6,2.2-3.6,4.3c0,2.1,1.6,4,3.6,4.3
		c0.4,2,2.2,3.6,4.3,3.6c2.5,0,4.4-2,4.4-4.4v-0.9H36v3.5h5.3v-3.5h1.8v3.5h5.3v-8.9H29V43.5z M46.7,46.1v5.3h-1.8v-3.5h-5.3v3.5
		h-1.8v-3.5H27.2v2.7c0,1.5-1.2,2.7-2.7,2.7c-1.5,0-2.7-1.2-2.7-2.7v-0.9H21c-1.5,0-2.7-1.2-2.7-2.7c0-1.5,1.2-2.7,2.7-2.7h0.9v-0.9
		c0-1.5,1.2-2.7,2.7-2.7c1.5,0,2.7,1.2,2.7,2.7v2.7H46.7z"/>
	<rect x="23.6" y="46.1" class="st0" width="1.8" height="1.8"/>
</g>
</svg>
