<svg xmlns:dc="http://purl.org/dc/elements/1.1/" xmlns:cc="http://creativecommons.org/ns#" xmlns:rdf="http://www.w3.org/1999/02/22-rdf-syntax-ns#" xmlns:svg="http://www.w3.org/2000/svg" xmlns="http://www.w3.org/2000/svg" xmlns:sodipodi="http://sodipodi.sourceforge.net/DTD/sodipodi-0.dtd" xmlns:inkscape="http://www.inkscape.org/namespaces/inkscape" version="1.1" x="0px" y="0px" viewBox="0 0 100 100"><g transform="translate(0,-952.36218)"><path style="text-indent:0;text-transform:none;direction:ltr;block-progression:tb;baseline-shift:baseline;color:#000000;enable-background:accumulate;" d="m 20,972.36215 c -7.1501,0 -13.0000002,5.84988 -13.0000002,13 l 0,33.99995 c 0,7.1502 5.8499002,13.0001 13.0000002,13.0001 l 60,0 c 7.1501,0 13,-5.8499 13,-13.0001 l 0,-33.99995 c 0,-7.15012 -5.8499,-13 -13,-13 l -60,0 z m 0,6 60,0 c 1.0562,0 2.0484,0.22442 2.9375,0.625 l -32,30.03125 c -0.3553,0.3337 -1.5197,0.3337 -1.875,0 l -32,-30.03125 c 0.8891,-0.40058 1.8813,-0.625 2.9375,-0.625 z m -6.7812,5.25 31.7187,29.78125 c 2.8659,2.691 7.2591,2.691 10.125,0 l 31.7187,-29.78125 c 0.1391,0.55918 0.2188,1.14136 0.2188,1.75 l 0,33.99995 c 0,3.93 -3.0701,7.0001 -7,7.0001 l -60,0 c -3.9299,0 -7,-3.0701 -7,-7.0001 l 0,-33.99995 c 0,-0.60864 0.08,-1.19082 0.2188,-1.75 z" fill="#003b5e" fill-opacity="1" stroke="none" marker="none" visibility="visible" display="inline" overflow="visible"></path></g></svg>