<svg xmlns="http://www.w3.org/2000/svg" xmlns:xlink="http://www.w3.org/1999/xlink" version="1.1" x="0px" y="0px" viewBox="0 0 100 100" style="enable-background:new 0 0 100 100;" xml:space="preserve"><style type="text/css">
	.st0{fill:none;stroke:#B52828;stroke-width:2;stroke-linecap:round;stroke-miterlimit:10;}
</style><g><path d="M76.8,37.4c-0.2-0.4-0.4-0.8-0.7-1L65.5,25.9c-0.2-0.2-0.5-0.4-0.7-0.5C64.6,25.2,64.3,25,64,25c-0.1,0-0.2,0-0.2,0   c-0.2,0-0.3,0-0.5,0H25.1c-1.7,0-3.1,1.4-3.1,3.1v44.7c0,1.7,1.4,3.1,3.1,3.1h48.7c1.7,0,3.1-1.4,3.1-3.1V38.6c0-0.1,0-0.3,0-0.4   c0-0.1,0-0.1,0-0.2C77,37.8,76.9,37.5,76.8,37.4z M65,28.2l8.9,8.8H67c-1.1,0-2-0.9-2-2V28.2z M75,72.9c0,0.6-0.5,1.1-1.1,1.1H25.1   c-0.6,0-1.1-0.5-1.1-1.1V28.1c0-0.6,0.5-1.1,1.1-1.1H63v8c0,2.2,1.8,4,4,4h8V72.9z"></path><path d="M33.1,49h6.9c2.2,0,4.1-1.8,4.1-4.1v-6.9c0-2.2-1.8-4.1-4.1-4.1h-6.9c-2.2,0-4.1,1.8-4.1,4.1v6.9C29,47.2,30.8,49,33.1,49z    M31,38.1c0-1.1,0.9-2.1,2.1-2.1h6.9c1.1,0,2.1,0.9,2.1,2.1v6.9c0,1.1-0.9,2.1-2.1,2.1h-6.9c-1.1,0-2.1-0.9-2.1-2.1V38.1z"></path><path d="M49,37h9c0.6,0,1-0.4,1-1s-0.4-1-1-1h-9c-0.6,0-1,0.4-1,1S48.4,37,49,37z"></path><path d="M48,48c0,0.6,0.4,1,1,1h20c0.6,0,1-0.4,1-1s-0.4-1-1-1H49C48.4,47,48,47.4,48,48z"></path><path d="M49,43h9c0.6,0,1-0.4,1-1s-0.4-1-1-1h-9c-0.6,0-1,0.4-1,1S48.4,43,49,43z"></path><path d="M69,53H30c-0.6,0-1,0.4-1,1s0.4,1,1,1h39c0.6,0,1-0.4,1-1S69.6,53,69,53z"></path><path d="M69,66H30c-0.6,0-1,0.4-1,1s0.4,1,1,1h39c0.6,0,1-0.4,1-1S69.6,66,69,66z"></path><path d="M69,59H30c-0.6,0-1,0.4-1,1s0.4,1,1,1h39c0.6,0,1-0.4,1-1S69.6,59,69,59z"></path></g></svg>