<?xml version="1.0" encoding="utf-8"?>
<!-- Generator: Adobe Illustrator 21.1.0, SVG Export Plug-In . SVG Version: 6.00 Build 0)  -->
<svg version="1.1" id="Layer_1" xmlns="http://www.w3.org/2000/svg" xmlns:xlink="http://www.w3.org/1999/xlink" x="0px" y="0px"
	 viewBox="0 0 100 100" style="enable-background:new 0 0 100 100;" xml:space="preserve">
<style type="text/css">
	.st0{fill:#003B5E;}
</style>
<path class="st0" d="M84.6,40.3c-0.8-0.8-2-0.8-2.8,0L43.5,78.6c-5.7,5.6-14.8,5.6-20.5,0s-5.7-14.8,0-20.5l38.3-38.3
	c1.7-1.7,4-2.6,6.4-2.6c2.4,0,4.7,0.9,6.4,2.6c3.5,3.5,3.5,9.2,0,12.7L36.3,70.3c-1.4,1.4-3.6,1.4-5,0c-1.4-1.4-1.4-3.6,0-4.9
	l19.7-19.7c0.8-0.8,0.8-2,0-2.8s-2-0.8-2.8,0L28.5,62.5c-2.9,2.9-2.9,7.7,0,10.6c2.9,2.9,7.7,2.9,10.6,0l37.7-37.7
	c5.1-5.1,5.1-13.3,0-18.4c-2.5-2.5-5.7-3.8-9.2-3.8s-6.7,1.4-9.2,3.8L20.2,55.2c0,0,0,0,0,0l-0.9,0.9c-0.1,0.1-0.3,0.3-0.4,0.5
	c-2.7,3.3-4.2,7.4-4.2,11.7c0,4.9,1.9,9.6,5.4,13.1s8.1,5.4,13.1,5.4c4.3,0,8.4-1.5,11.7-4.2c0.2-0.1,0.3-0.2,0.5-0.4l0.9-0.9
	c0,0,0,0,0,0l38.3-38.3C85.4,42.4,85.4,41.1,84.6,40.3z"/>
</svg>
