<?xml version="1.0" encoding="utf-8"?>
<!-- Generator: Adobe Illustrator 21.1.0, SVG Export Plug-In . SVG Version: 6.00 Build 0)  -->
<svg version="1.1" id="Layer_1" xmlns="http://www.w3.org/2000/svg" xmlns:xlink="http://www.w3.org/1999/xlink" x="0px" y="0px"
	 viewBox="0 0 100 100" style="enable-background:new 0 0 100 100;" xml:space="preserve">
<style type="text/css">
	.st0{fill:#003B5E;}
</style>
<g>
	<path class="st0" d="M71,96c3,0,5.5-2.5,5.5-5.5v-81C76.5,6.5,74,4,71,4H29c-3,0-5.5,2.5-5.5,5.5v81c0,3,2.5,5.5,5.5,5.5H71z
		 M26.5,24h47v50h-47V24z M29,7h42c1.4,0,2.5,1.1,2.5,2.5V21h-47V9.5C26.5,8.1,27.6,7,29,7z M26.5,90.5V77h47v13.5
		c0,1.4-1.1,2.5-2.5,2.5H29C27.6,93,26.5,91.9,26.5,90.5z"/>
	<path class="st0" d="M48,15h4c0.8,0,1.5-0.7,1.5-1.5S52.8,12,52,12h-4c-0.8,0-1.5,0.7-1.5,1.5S47.2,15,48,15z"/>
	<path class="st0" d="M46,87h8c0.8,0,1.5-0.7,1.5-1.5S54.8,84,54,84h-8c-0.8,0-1.5,0.7-1.5,1.5S45.2,87,46,87z"/>
</g>
</svg>
