<?xml version="1.0" encoding="utf-8"?>
<!-- Generator: Adobe Illustrator 21.1.0, SVG Export Plug-In . SVG Version: 6.00 Build 0)  -->
<svg version="1.1" id="Layer_1" xmlns="http://www.w3.org/2000/svg" xmlns:xlink="http://www.w3.org/1999/xlink" x="0px" y="0px"
	 viewBox="0 0 100 100" style="enable-background:new 0 0 100 100;" xml:space="preserve">
<style type="text/css">
	.st0{fill:#003B5E;}
</style>
<path class="st0" d="M95,53.1L95,53.1C95,53,95,53,95,53.1L95,53.1L82,22.3c0.6-0.9,1-2.1,1-3.3c0-3.3-2.7-6-6-6
	c-2.6,0-4.8,1.7-5.7,4h-9.4l0.2-1.1c0.5-2.2-1-3.9-3.2-3.9H41c-2.2,0-3.6,1.8-3.2,3.9l0.2,1.1h-9.4c-0.8-2.3-3-4-5.7-4
	c-3.3,0-6,2.7-6,6c0,1.2,0.4,2.3,1,3.3L5,53.1C5,62.4,13.1,70,23,70c9.9,0,17.9-7.6,18-16.9L28,22.3c0.4-0.7,0.7-1.4,0.9-2.3h9.8
	l0.4,2.1c0.5,2.2,2.6,3.9,4.8,3.9h1v49H35c-2.2,0-4.5,1.7-5.2,3.8l-1.6,5.4C27.5,86.3,28.8,88,31,88h38c2.2,0,3.5-1.7,2.8-3.8
	l-1.6-5.4c-0.6-2.1-3-3.8-5.2-3.8H55V26h1c2.2,0,4.4-1.8,4.8-3.9l0.4-2.1h9.8c0.1,0.8,0.4,1.6,0.9,2.3L59,53.1l0,0
	C59,62.4,67.1,70,77,70C86.9,70,94.9,62.4,95,53.1L95,53.1z M23,16c1.7,0,3,1.3,3,3s-1.3,3-3,3s-3-1.3-3-3S21.3,16,23,16z M23,67
	c-7.2,0-13.2-4.7-14.7-11h29.3C36.2,62.3,30.2,67,23,67z M8.3,53l12.1-28.6C21.1,24.8,22,25,23,25c0.9,0,1.8-0.2,2.6-0.6L37.7,53
	H8.3z M65,78c0.9,0,2.1,0.9,2.3,1.7l1.6,5.3H31.1l1.6-5.3c0.3-0.8,1.4-1.7,2.3-1.7h10h10H65z M52,75h-4V26h4V75z M59.2,15.3
	l-1.3,6.2C57.7,22.2,56.8,23,56,23H44c-0.8,0-1.7-0.8-1.9-1.5l-1.3-6.2c0-0.2,0-0.2,0-0.2c0,0,0.1,0,0.3,0h18c0.1,0,0.2,0,0.2,0h0
	C59.2,15,59.3,15.1,59.2,15.3z M77,25c0.9,0,1.8-0.2,2.6-0.6L91.7,53H62.3l12.1-28.6C75.1,24.8,76,25,77,25z M77,16c1.7,0,3,1.3,3,3
	s-1.3,3-3,3c-1.7,0-3-1.3-3-3S75.3,16,77,16z M77,67c-7.2,0-13.2-4.7-14.7-11h29.3C90.2,62.3,84.2,67,77,67z"/>
</svg>
