<?xml version="1.0" encoding="utf-8"?>
<!-- Generator: Adobe Illustrator 21.1.0, SVG Export Plug-In . SVG Version: 6.00 Build 0)  -->
<svg version="1.1" id="Layer_1" xmlns="http://www.w3.org/2000/svg" xmlns:xlink="http://www.w3.org/1999/xlink" x="0px" y="0px"
	 viewBox="0 0 100 100" style="enable-background:new 0 0 100 100;" xml:space="preserve">
<style type="text/css">
	.st0{fill:#003B5E;}
</style>
<title>02</title>
<g>
	<path class="st0" d="M69.6,63.9c11.3-14.4,8.8-35.2-5.6-46.5S28.7,8.6,17.4,23S8.6,58.3,23,69.6c12,9.4,28.9,9.4,40.9,0l18.9,18.9
		c1.6,1.6,4.1,1.6,5.7,0s1.6-4.1,0-5.7L69.6,63.9z M25.7,61.3c-9.8-9.8-9.8-25.8,0-35.6s25.8-9.8,35.6,0s9.8,25.8,0,35.6
		c0,0,0,0,0,0C51.4,71.1,35.5,71.1,25.7,61.3L25.7,61.3z"/>
</g>
</svg>
