<?xml version="1.0" encoding="utf-8"?>
<!-- Generator: Adobe Illustrator 21.1.0, SVG Export Plug-In . SVG Version: 6.00 Build 0)  -->
<svg version="1.1" id="Layer_1" xmlns="http://www.w3.org/2000/svg" xmlns:xlink="http://www.w3.org/1999/xlink" x="0px" y="0px"
	 viewBox="0 0 256 256" style="enable-background:new 0 0 256 256;" xml:space="preserve">
<style type="text/css">
	.st0{fill:#FFFFFF;}
</style>
<g>
	<path class="st0" d="M166.4,131c-7.1-2.8-13.6-5.4-17-8.6c11-3,19.1-13,19.1-24V71.8c0-21.4-18.6-40.1-39.9-40.4h-0.1l0,0l0,0
		c0,0,0.1,0,0,0c-21.5,0-40,19.1-40,40.9v26c0,11,7,20.8,17.9,23.9c-3.3,3.3-10.4,6-17.5,8.8c-18.3,7.1-43.4,16.9-46.8,49.8
		c-0.6,6.1,3,12,8.8,14.4l67.5,27.6c3,1.3,6.1,1.9,9.3,1.9c3.1,0,6.3-0.6,9.3-1.9l67.4-27.6c5.8-2.4,9.4-8.3,8.8-14.4
		C209.9,147.9,184.8,138.1,166.4,131z M200.8,186l-67.4,27.6c-3.6,1.5-7.5,1.5-11.1,0L54.7,186c-1.8-0.8-2.9-2.5-2.8-4.4
		c2.8-26.9,22.8-34.8,40.4-41.6c9-3.5,16.8-6.5,21.5-11.9c2.1-2.5,2.9-5.9,2-9c-1-3.3-3.5-5.6-6.8-6.5c-6.8-1.8-11.6-7.9-11.6-14.5
		V72.2c0-16.5,14.3-31,30.4-31h0.1l0,0l0,0h0.4c15.8,0.1,30.3,14.6,30.3,30.5v26.6c0,6.6-5.3,12.8-12.1,14.6c-3.3,0.9-6,3.4-7,6.6
		c-1,3.3-0.3,6.6,2,9c4.8,5.1,12.4,8.1,21.3,11.6c17.8,6.9,37.9,14.8,40.5,41.6C203.6,183.5,202.5,185.4,200.8,186z"/>
	<path class="st0" d="M33.2,177.6l-21.6-9.3c-1.1-0.5-1.9-1.6-1.8-2.8c2.3-22.1,18.9-28.6,33.5-34.3c7.8-3,14.4-5.6,18.4-10.3
		c2.1-2.4,2.9-5.6,1.9-8.6c-0.9-2.9-2.9-5-5.8-5.8c-5.1-1.4-8.3-5.9-8.3-11.4v-22c0-13.4,11-25,23.8-25.3l0,0l0,0c0,0,0,0,0.1,0
		c3,0,5.4,0.6,8.6,2.1c2.5,1.1,5.5,0,6.6-2.5c1.1-2.5,0-5.5-2.5-6.6c-4.6-2.1-8.5-3-12.9-3c-0.3,0-0.6,0-0.9,0v-0.1l0.3,0.1
		c-18,0.5-32.9,16.5-32.9,35.3v21.9c0,9.1,5.4,17.3,13.5,20.4c-2.9,2.3-8.1,4.3-13.4,6.3C24.3,128,2.8,136.2,0.1,164.5
		c-0.5,5.5,2.6,10.9,7.8,13l21.5,9.3c0.6,0.3,1.3,0.4,2,0.4c2,0,3.8-1.1,4.6-3C36.9,181.6,35.8,178.6,33.2,177.6z"/>
	<path class="st0" d="M255.9,164.5c-2.9-28.1-24.3-36.5-39.9-42.6c-5.3-2-10.1-4-13-6.3c8.4-3.1,14.3-11.3,14.3-20.4V73.3
		c0-19.1-16-35.3-34.6-35.3c-4.5,0-8.8,1-13.3,3c-2.5,1.1-3.8,4.1-2.5,6.6c1.1,2.5,4.1,3.6,6.6,2.5c3.1-1.4,6.1-2.1,9.1-2.1
		c13,0,24.6,11.8,24.6,25.3v21.9c0,5.4-3.9,10-9,11.4c-2.9,0.8-5.3,3-6.1,5.9c-0.9,3-0.3,6.1,1.9,8.5c4.1,4.6,10.8,7.3,18.4,10.3
		c14.6,5.8,31.3,12.3,33.5,34.3c0.1,1.1-0.6,2.3-1.9,2.8l-21.5,9.3c-2.5,1.1-3.8,4-2.6,6.6c0.9,1.9,2.6,3,4.6,3c0.6,0,1.4-0.1,2-0.4
		l21.5-9.3C253.3,175.5,256.5,170.1,255.9,164.5z"/>
</g>
</svg>
