<?xml version="1.0" encoding="utf-8"?>
<!-- Generator: Adobe Illustrator 21.1.0, SVG Export Plug-In . SVG Version: 6.00 Build 0)  -->
<svg version="1.1" id="Layer_1" xmlns="http://www.w3.org/2000/svg" xmlns:xlink="http://www.w3.org/1999/xlink" x="0px" y="0px"
	 viewBox="0 0 100 100" style="enable-background:new 0 0 100 100;" xml:space="preserve">
<style type="text/css">
	.st0{fill:#FFFFFF;}
</style>
<g>
	<path class="st0" d="M50,15c-3.4,0-6.1,2.7-6.1,6.1V55c-2.7,1.9-4.4,5-4.4,8.6s1.8,6.7,4.4,8.6V77c0,3.4,2.7,6.1,6.1,6.1
		s6.1-2.7,6.1-6.1v-4.8c2.7-1.9,4.4-5,4.4-8.6s-1.8-6.7-4.4-8.6V21.1C56.1,17.7,53.4,15,50,15z M45.9,21.1c0-2.2,1.8-4.1,4.1-4.1
		s4.1,1.8,4.1,4.1v32.8c-1.3-0.5-2.6-0.8-4.1-0.8s-2.8,0.3-4.1,0.8V21.1z M54.1,76.9c0,2.2-1.8,4.1-4.1,4.1s-4.1-1.8-4.1-4.1v-3.6
		c1.3,0.5,2.6,0.8,4.1,0.8s2.8-0.3,4.1-0.8V76.9z M58.5,63.6c0,4.7-3.8,8.5-8.5,8.5s-8.5-3.8-8.5-8.5s3.8-8.5,8.5-8.5
		S58.5,58.9,58.5,63.6z"/>
	<path class="st0" d="M75.5,15c-3,0-5.5,2.7-5.5,6.1v14.5c-3.1,1.8-5.1,5.2-5.1,9s2.1,7.2,5.1,9v23.3c0,3.4,2.5,6.1,5.5,6.1
		s5.5-2.7,5.5-6.1V53.4c2.9-1.9,4.9-5.1,4.9-8.9s-2-7-4.9-8.9V21.1C81,17.7,78.5,15,75.5,15z M72,21.1c0-2.2,1.6-4.1,3.5-4.1
		s3.5,1.8,3.5,4.1v13.6c-1.1-0.4-2.3-0.7-3.6-0.7c-1.2,0-2.3,0.2-3.4,0.6V21.1z M79,76.9c0,2.2-1.6,4.1-3.5,4.1S72,79.2,72,76.9
		V54.5c1.1,0.4,2.2,0.6,3.4,0.6c1.3,0,2.5-0.2,3.6-0.7V76.9z M83.9,44.6c0,4.7-3.8,8.5-8.5,8.5c-1.2,0-2.3-0.3-3.4-0.7l0,0h-0.1
		c-3-1.3-5.1-4.3-5.1-7.8c0-4.7,3.8-8.5,8.5-8.5C80.1,36,83.9,39.9,83.9,44.6z"/>
	<path class="st0" d="M24.5,15c-3,0-5.5,2.7-5.5,6.1v7c-2.9,1.9-4.9,5.1-4.9,8.9s2,7,4.9,8.9V77c0,3.4,2.5,6.1,5.5,6.1
		S30,80.4,30,77V46c3.1-1.8,5.1-5.2,5.1-9S33,29.8,30,28v-6.8C30,17.7,27.5,15,24.5,15z M21,21.1c0-2.2,1.6-4.1,3.5-4.1
		s3.5,1.8,3.5,4.1V27c-1.1-0.4-2.2-0.6-3.4-0.6c-1.3,0-2.5,0.2-3.6,0.7V21.1z M28,76.9c0,2.2-1.6,4.1-3.5,4.1S21,79.2,21,76.9V46.8
		c1.1,0.4,2.3,0.7,3.6,0.7c1.2,0,2.3-0.2,3.4-0.6V76.9z M33.1,36.9c0,4.7-3.8,8.5-8.5,8.5s-8.5-3.8-8.5-8.5s3.8-8.5,8.5-8.5
		c1.2,0,2.3,0.3,3.4,0.7l0,0h0.1C31.1,30.5,33.1,33.5,33.1,36.9z"/>
</g>
</svg>
